<?xml version="1.0" encoding="iso-8859-1"?>
<!-- Uploaded to: SVG Repo, www.svgrepo.com, Generator: SVG Repo Mixer Tools -->
<!DOCTYPE svg PUBLIC "-//W3C//DTD SVG 1.1//EN" "http://www.w3.org/Graphics/SVG/1.1/DTD/svg11.dtd">
<svg version="1.1" id="Capa_1" xmlns="http://www.w3.org/2000/svg" xmlns:xlink="http://www.w3.org/1999/xlink" 
	 viewBox="0 0 485.005 485.005" xml:space="preserve">
<g>
	<path d="M188.198,330.416c2.347,0,4.25-1.903,4.25-4.25V145.731h104.408c2.347,0,4.25-1.903,4.25-4.25
		c0-2.347-1.903-4.25-4.25-4.25H188.198c-2.347,0-4.25,1.903-4.25,4.25v184.685C183.948,328.513,185.85,330.416,188.198,330.416z"/>
	<path d="M29.154,355.278c2.347,0,4.25-1.903,4.25-4.25V212.029h104.409c2.347,0,4.25-1.903,4.25-4.25s-1.903-4.25-4.25-4.25H29.154
		c-2.347,0-4.25,1.903-4.25,4.25v143.249C24.904,353.375,26.807,355.278,29.154,355.278z"/>
	<path d="M347.191,355.278c2.347,0,4.25-1.903,4.25-4.25V238.073H455.85c2.347,0,4.25-1.903,4.25-4.25c0-2.347-1.903-4.25-4.25-4.25
		H347.191c-2.347,0-4.25,1.903-4.25,4.25v117.205C342.941,353.375,344.844,355.278,347.191,355.278z"/>
	<path d="M480.755,203.529H326.011v-91.64c0-2.347-1.903-4.25-4.25-4.25H163.292c-2.347,0-4.25,1.903-4.25,4.25v64.413H4.25
		c-2.347,0-4.25,1.903-4.25,4.25v189.416c0,2.347,1.903,4.25,4.25,4.25h158.468c0.099,0,0.191-0.022,0.288-0.029
		c0.097,0.006,0.189,0.029,0.287,0.029h158.468c0.09,0,0.174-0.021,0.263-0.026c0.089,0.005,0.173,0.026,0.263,0.026h158.468
		c2.347,0,4.25-1.903,4.25-4.25V207.779C485.005,205.431,483.102,203.529,480.755,203.529z M158.468,365.718H8.5V184.802h149.968
		V365.718z M317.511,365.718H167.542V116.139h149.968V365.718z M476.505,365.718H326.537V212.029h149.968V365.718z"/>
	<path d="M250.021,159.029h-8.95c-1.238,0-2.462,0.27-3.585,0.793l-12.217,5.683c-3.61,1.679-5.571,5.639-4.718,9.528l1.776,8.097
		c0.556,2.532,2.236,4.673,4.564,5.813c1.179,0.577,2.458,0.866,3.738,0.866c0.15,0,0.3-0.004,0.45-0.012v23.901
		c0,4.694,3.806,8.5,8.5,8.5h10.441c4.694,0,8.5-3.806,8.5-8.5v-46.169C258.521,162.835,254.716,159.029,250.021,159.029z
		 M250.021,213.698H239.58v-36.58h-0.142l-8.808,4.191l-1.776-8.097l12.217-5.683h8.95V213.698z"/>
	<path d="M102.004,287.851c3.097-4.48,5.145-9.526,5.145-15.456c0-13.536-10.155-22.99-24.695-22.99
		c-7.42,0-14.802,2.36-20.252,6.476c-3.047,2.301-4.186,6.351-2.784,9.903l3.055,7.742c0.978,2.479,3.063,4.356,5.631,5.07
		c0.749,0.208,1.515,0.31,2.275,0.31c1.846,0,3.665-0.601,5.164-1.748c0.873-0.668,1.725-1.187,2.518-1.54
		c-2.602,3.455-8.436,8.672-11.004,10.969l-6.003,5.432c-1.781,1.611-2.797,3.901-2.797,6.303v6.535c0,4.694,3.806,8.5,8.5,8.5
		h32.745c4.694,0,8.5-3.806,8.5-8.5v-8.879C108.002,292.154,105.478,288.92,102.004,287.851z M99.502,304.856H66.757v-6.535
		l5.966-5.398c10.086-9.021,14.987-14.206,15.129-19.604c0-3.765-2.273-6.748-7.6-6.748c-3.978,0-7.458,1.989-9.873,3.836
		l-3.055-7.742c3.48-2.628,8.879-4.759,15.129-4.759c10.442,0,16.195,6.108,16.195,14.49c0,7.742-5.611,13.922-12.288,19.888
		l-4.262,3.551v0.142h17.402V304.856z"/>
	<path d="M424.05,269.412c0-5.816-2.54-11.057-7.151-14.755c-4.284-3.436-10.056-5.252-16.692-5.252
		c-6.994,0-14.222,1.849-18.864,4.825c-3.15,2.019-4.609,5.86-3.594,9.461l2.202,7.813c0.584,2.072,1.926,3.827,3.73,4.936
		c0,0.048-0.001,0.097-0.001,0.145v7.743c0,0.661,0.076,1.305,0.218,1.922c-0.203,0.071-0.404,0.15-0.603,0.238
		c-2.353,1.032-4.113,3.074-4.787,5.554l-2.202,8.098c-0.979,3.603,0.507,7.423,3.663,9.417c4.542,2.868,11.363,4.58,18.247,4.58
		c16.129,0,27.394-9.308,27.394-22.635c0-4.598-1.561-8.821-4.263-12.188C423.107,276.419,424.05,273.061,424.05,269.412z
		 M398.219,305.637c-5.966,0-11.009-1.563-13.708-3.267l2.202-8.098c1.918,0.995,6.322,2.841,10.726,2.841
		c5.611,0,8.453-2.699,8.453-6.18c0-4.546-4.546-6.605-9.305-6.605h-4.404v-7.743h4.191c3.623-0.071,8.239-1.42,8.239-5.327
		c0-2.77-2.273-4.83-6.819-4.83c-3.764,0-7.742,1.634-9.66,2.771l-2.202-7.814c2.77-1.776,8.311-3.48,14.277-3.48
		c9.874,0,15.343,5.185,15.343,11.507c0,4.901-2.771,8.737-8.453,10.726v0.142c5.54,0.994,10.015,5.185,10.015,11.223
		C417.113,299.671,409.939,305.637,398.219,305.637z"/>
	<path d="M137.813,346.778h-24.85c-2.347,0-4.25,1.903-4.25,4.25s1.903,4.25,4.25,4.25h24.85c2.347,0,4.25-1.903,4.25-4.25
		S140.16,346.778,137.813,346.778z"/>
	<path d="M296.855,346.778h-24.85c-2.347,0-4.25,1.903-4.25,4.25s1.903,4.25,4.25,4.25h24.85c2.347,0,4.25-1.903,4.25-4.25
		S299.203,346.778,296.855,346.778z"/>
	<path d="M455.85,346.778h-24.85c-2.347,0-4.25,1.903-4.25,4.25s1.903,4.25,4.25,4.25h24.85c2.347,0,4.25-1.903,4.25-4.25
		S458.198,346.778,455.85,346.778z"/>
</g>
<rect x="159.432" y="371.038" style="fill:none;stroke:#FF0000;stroke-width:0.5;stroke-miterlimit:10;" width="7.188" height="6.078"/>
<rect x="319.596" y="372.521" style="fill:none;stroke:#FF0000;stroke-width:0.5;stroke-miterlimit:10;" width="4.844" height="3.395"/>
</svg>